<svg width="176" height="48" viewBox="0 0 176 48" fill="none" xmlns="http://www.w3.org/2000/svg">
<path d="M47.4893 0.934493H54.6069C57.6765 0.75655 60.3456 3.11428 60.5235 6.22827C60.5235 6.4507 60.5235 6.62864 60.5235 6.85107C60.568 8.45255 59.9897 9.96506 58.8331 11.0772C57.632 12.1893 56.075 12.7677 54.429 12.6787H51.0481V17.9725H47.4893V0.934493ZM51.0481 3.87054V9.8316H53.6283C54.518 9.87609 55.3632 9.60918 56.075 9.03086C56.6533 8.45255 56.9647 7.65181 56.9202 6.85107C56.9647 6.00585 56.6533 5.20511 56.075 4.62679C55.4077 4.09297 54.5625 3.78157 53.6727 3.87054H51.0481Z" fill="#fff"/>
<path d="M62.6133 18.0167V0H65.9942V7.11769H66.2166C66.4835 6.36143 67.0173 5.73864 67.6846 5.33827C68.4409 4.89341 69.2861 4.67098 70.1313 4.71547C71.3769 4.6265 72.578 5.11584 73.4233 6.00555C74.224 6.85078 74.5799 8.05189 74.5799 9.60888V18.0167H71.1545V10.4541C71.199 9.69785 70.9766 8.98608 70.5317 8.40777C70.0869 7.91843 69.4196 7.65152 68.7523 7.696C67.996 7.65152 67.2843 7.91843 66.7504 8.45226C66.2611 9.03057 65.9942 9.74234 66.0387 10.4986V17.9722L62.6133 18.0167Z" fill="#fff"/>
<path d="M81.0295 18.239C79.9174 18.2835 78.8052 17.8831 77.96 17.1713C77.1593 16.4596 76.7144 15.3919 76.7589 14.3243C76.7144 13.2566 77.2038 12.189 78.049 11.5662C78.9387 10.8989 80.1843 10.4985 81.7858 10.4095L84.9442 10.2316V9.16393C84.9887 8.67459 84.7663 8.22974 84.3659 7.91834C83.8766 7.60694 83.2983 7.429 82.72 7.47348C81.4299 7.47348 80.6736 7.87385 80.3622 8.67459H77.2038C77.2927 7.51797 77.9155 6.45031 78.8942 5.78303C80.0953 5.02678 81.4744 4.67089 82.8979 4.71538C84.6328 4.71538 85.9674 5.11575 86.9016 5.872C87.8803 6.67274 88.3696 7.87385 88.3252 9.11945V18.0166H84.9887V16.3261H84.7663C84.4104 16.9489 83.8766 17.4382 83.2538 17.7052C82.631 18.061 81.8303 18.239 81.0295 18.239ZM82.1861 15.6143C82.8979 15.6588 83.6097 15.3919 84.188 14.9471C84.6773 14.5467 84.9887 13.9239 84.9887 13.3011V12.3224L82.3641 12.5004C80.8961 12.5893 80.1843 13.1231 80.1843 14.0573C80.1843 14.5022 80.3622 14.9471 80.7626 15.214C81.1185 15.5254 81.6523 15.6588 82.1861 15.6143Z" fill="#fff"/>
<path d="M91.2627 18.0167V4.98244H94.5991V7.07326H94.8215C94.9995 6.40598 95.4443 5.82766 96.0226 5.42729C96.6454 4.98244 97.4017 4.76001 98.2024 4.76001C98.6473 4.76001 99.0922 4.8045 99.537 4.93795V8.05194C99.0032 7.874 98.4694 7.82951 97.891 7.82951C97.0458 7.78503 96.2451 8.05194 95.5778 8.63025C94.9995 9.16408 94.6436 9.96482 94.6881 10.7656V17.9722L91.2627 18.0167Z" fill="#fff"/>
<path d="M101.494 18.0168V4.98251H104.831V7.11782H105.053C105.32 6.40605 105.765 5.78325 106.432 5.3384C107.099 4.89354 107.856 4.67111 108.656 4.67111C109.457 4.62663 110.258 4.84906 110.925 5.29391C111.548 5.73877 112.037 6.36157 112.26 7.07333H112.482C112.793 6.36157 113.327 5.73877 113.995 5.3384C114.706 4.89354 115.552 4.67111 116.397 4.67111C117.553 4.62663 118.666 5.027 119.466 5.87222C120.267 6.76194 120.667 7.87407 120.623 9.07518V18.0168H117.198V10.0094C117.198 8.45239 116.486 7.69613 115.018 7.69613C114.395 7.65165 113.772 7.91856 113.327 8.36342C112.882 8.80827 112.66 9.43107 112.705 10.0984V18.0613H109.413V9.83144C109.457 9.25313 109.235 8.67481 108.834 8.22996C107.9 7.42922 106.477 7.4737 105.587 8.36342C105.142 8.85276 104.92 9.47555 104.92 10.1428V17.9723L101.494 18.0168Z" fill="#fff"/>
<path d="M135.125 14.947V18.0165H123.825V0.934082H135.125V4.00359H127.384V8.00729H134.68V10.8099H127.384V14.947H135.125Z" fill="#fff"/>
<path d="M141.13 18.239C140.018 18.2835 138.906 17.8831 138.061 17.1713C137.26 16.4596 136.815 15.3919 136.859 14.3243C136.815 13.2566 137.304 12.189 138.15 11.5662C139.039 10.8989 140.285 10.4985 141.886 10.4095L145.045 10.2316V9.16393C145.089 8.67459 144.867 8.22974 144.467 7.91834C143.977 7.60694 143.399 7.429 142.821 7.47348C141.53 7.47348 140.774 7.87385 140.463 8.67459H137.304C137.393 7.51797 138.016 6.45031 138.995 5.78303C140.196 5.02678 141.575 4.67089 142.998 4.71538C144.733 4.71538 146.068 5.11575 147.002 5.872C147.981 6.67274 148.47 7.87385 148.426 9.11945V18.0166H145.089V16.3261H144.867C144.511 16.9489 143.977 17.4382 143.354 17.7052C142.687 18.061 141.931 18.239 141.13 18.239ZM142.287 15.6143C142.998 15.6588 143.71 15.3919 144.289 14.9471C144.822 14.5467 145.089 13.9239 145.089 13.3011V12.3224L142.465 12.5004C140.997 12.5893 140.285 13.1231 140.285 14.0573C140.285 14.5022 140.463 14.9471 140.863 15.214C141.219 15.5254 141.753 15.6588 142.287 15.6143Z" fill="#fff"/>
<path d="M150.56 8.808C150.516 7.60689 151.094 6.49475 152.073 5.82746C153.23 5.02672 154.609 4.62635 155.988 4.71533C157.634 4.71533 158.924 5.07121 159.902 5.73849C160.837 6.40578 161.415 7.47343 161.459 8.63005H158.256C158.167 8.22968 157.901 7.82931 157.545 7.65137C157.1 7.38446 156.566 7.251 156.032 7.29549C155.498 7.29549 154.964 7.42894 154.475 7.69586C154.119 7.8738 153.852 8.27417 153.852 8.67454C153.852 8.98594 154.03 9.29734 154.297 9.47528C154.698 9.74219 155.142 9.92014 155.632 10.0091L158.078 10.5429C159.102 10.7209 160.08 11.1212 160.881 11.833C161.504 12.4558 161.815 13.2566 161.771 14.1463C161.815 15.3919 161.192 16.5485 160.169 17.2603C158.968 18.1055 157.5 18.5058 156.032 18.4614C154.297 18.4614 152.963 18.1055 151.939 17.4382C150.961 16.7709 150.338 15.7033 150.249 14.5466H153.585C153.852 15.4808 154.698 15.9257 156.077 15.9257C156.655 15.9702 157.189 15.8367 157.723 15.5253C158.123 15.3474 158.345 14.947 158.345 14.5021C158.345 14.1907 158.212 13.8794 157.945 13.7014C157.545 13.4345 157.144 13.301 156.699 13.2121L154.342 12.6782C153.274 12.5003 152.295 12.0554 151.495 11.3437C150.872 10.5874 150.56 9.69771 150.56 8.808Z" fill="#fff"/>
<path d="M164.885 22.7767C164.129 22.7767 163.728 22.7767 163.55 22.7322V19.9741C163.817 19.9741 164.084 20.0186 164.351 19.9741C164.885 20.0186 165.419 19.8851 165.908 19.6182C166.308 19.3958 166.575 18.9954 166.664 18.5506L166.798 18.0612L162.216 4.93799H165.997L168.755 14.8138H168.978L171.736 4.93799H175.384L170.935 18.1947C170.401 19.8851 169.645 21.0418 168.755 21.709C167.777 22.4208 166.531 22.7767 164.885 22.7767Z" fill="#fff"/>
<path d="M46.4648 38.2131H49.5343C49.6233 39.0139 50.0682 39.6811 50.7799 40.1705C51.4917 40.6598 52.4259 40.9267 53.4936 40.9267C54.5612 40.9267 55.4064 40.7043 56.0737 40.215C56.741 39.7256 57.0969 39.1473 57.0969 38.3911C57.0969 37.7683 56.8745 37.2344 56.3851 36.8341C55.8958 36.4337 55.095 36.1223 53.9829 35.8554L51.7141 35.3216C50.1127 34.9657 48.9115 34.3429 48.1108 33.5866C47.3101 32.7859 46.9542 31.7627 46.9542 30.5171C46.9542 28.9601 47.577 27.7145 48.7781 26.7358C49.9792 25.7572 51.5807 25.2678 53.4936 25.2678C55.4509 25.2678 57.0079 25.7572 58.1645 26.6914C59.3657 27.67 59.944 28.9156 59.9885 30.4726H56.9634C56.8745 29.6719 56.5186 29.0046 55.8958 28.5153C55.273 28.0259 54.4278 27.8035 53.4046 27.8035C52.4259 27.8035 51.6252 28.0259 51.0024 28.4708C50.3796 28.9156 50.0682 29.494 50.0682 30.2502C50.0682 30.8285 50.2906 31.3179 50.7799 31.6737C51.2693 32.0296 52.0255 32.341 53.1377 32.6079L55.184 33.0528C56.9634 33.4532 58.2535 34.076 59.0543 34.8322C59.855 35.633 60.2554 36.6561 60.2554 37.9907C60.2554 39.6811 59.6326 40.9712 58.387 41.9499C57.1414 42.9286 55.4509 43.4179 53.3156 43.4179C51.2693 43.4179 49.6233 42.9286 48.4222 41.9944C47.1766 41.1047 46.5093 39.8146 46.4648 38.2131Z" fill="#fff"/>
<path d="M74.8471 29.8054V43.1511H71.9111V40.8378H71.8221C71.4662 41.6386 70.8879 42.2614 70.1762 42.7062C69.4644 43.1511 68.5747 43.329 67.5515 43.329C66.0835 43.329 64.9269 42.8842 64.0371 41.9945C63.1474 41.1048 62.7471 39.9036 62.7471 38.3466V29.8054H65.7721V37.7683C65.7721 38.747 66.039 39.4588 66.5283 39.9926C67.0177 40.5264 67.7295 40.7489 68.6192 40.7489C69.5534 40.7489 70.3096 40.4375 70.8879 39.8592C71.4662 39.2364 71.7332 38.4801 71.7332 37.4569V29.8054H74.8471Z" fill="#fff"/>
<path d="M77.96 43.1511V29.8054H80.896V32.1186H80.9405C81.1629 31.3179 81.5633 30.7396 82.0971 30.2947C82.6754 29.8499 83.3427 29.6274 84.1435 29.6274C84.4993 29.6274 84.8107 29.6719 85.0777 29.7609V32.519C84.8107 32.3855 84.4104 32.3411 83.8765 32.3411C82.9868 32.3411 82.2751 32.608 81.7857 33.1418C81.2964 33.6756 81.0295 34.4319 81.0295 35.3661V43.1511H77.96Z" fill="#fff"/>
<path d="M92.5959 47.9999C90.9055 47.9999 89.5709 47.644 88.4588 46.9768C87.3911 46.265 86.7683 45.3308 86.6793 44.1742H89.7044C89.8378 44.6635 90.1492 45.0194 90.7275 45.3308C91.2613 45.5977 91.9286 45.7312 92.6849 45.7312C93.6636 45.7312 94.4643 45.5087 95.0426 45.0194C95.6209 44.5301 95.9323 43.9073 95.9323 43.062V40.7933H95.8434C95.4875 41.505 94.9537 42.0833 94.1974 42.4837C93.4411 42.8841 92.5959 43.1065 91.6617 43.1065C90.0158 43.1065 88.6812 42.4837 87.658 41.2826C86.6349 40.0815 86.1455 38.4355 86.1455 36.4337C86.1455 34.3429 86.6349 32.6969 87.658 31.4958C88.6812 30.2502 90.0158 29.6719 91.7062 29.6719C92.6404 29.6719 93.4856 29.8943 94.2419 30.2947C94.9536 30.7395 95.532 31.3178 95.9323 32.0741H95.9768V29.8053H98.9574V42.8396C98.9574 44.4411 98.379 45.6867 97.2224 46.6209C96.1103 47.5106 94.5533 47.9999 92.5959 47.9999ZM92.5959 40.6598C93.6191 40.6598 94.4198 40.2594 95.0426 39.5032C95.6654 38.7469 95.9768 37.7238 95.9768 36.4337C95.9768 35.1436 95.6654 34.1204 95.0426 33.3197C94.4198 32.5634 93.6191 32.1631 92.5959 32.1631C91.5727 32.1631 90.772 32.5634 90.1937 33.3197C89.6154 34.0759 89.304 35.1436 89.304 36.4337C89.304 37.7238 89.6154 38.7469 90.1937 39.5032C90.8165 40.2594 91.6172 40.6598 92.5959 40.6598Z" fill="#fff"/>
<path d="M103.673 28.1148C103.184 28.1148 102.783 27.9368 102.472 27.6254C102.116 27.314 101.982 26.9137 101.982 26.4243C101.982 25.935 102.16 25.5346 102.472 25.2232C102.828 24.9118 103.228 24.7339 103.673 24.7339C104.162 24.7339 104.563 24.9118 104.874 25.2232C105.185 25.5346 105.363 25.935 105.363 26.4243C105.363 26.9137 105.185 27.314 104.874 27.6254C104.563 27.9368 104.162 28.1148 103.673 28.1148ZM102.16 43.1509V29.8052H105.185V43.1509H102.16Z" fill="#fff"/>
<path d="M116.263 43.4625C113.727 43.4625 111.726 42.6617 110.257 41.0158C108.789 39.3698 108.033 37.1455 108.033 34.3429C108.033 31.5403 108.789 29.3161 110.257 27.6701C111.726 26.0241 113.727 25.2234 116.219 25.2234C118.265 25.2234 120 25.8017 121.423 26.9583C122.847 28.1149 123.648 29.6719 123.826 31.5403H120.712C120.489 30.4282 120 29.5385 119.155 28.8712C118.309 28.2039 117.331 27.848 116.219 27.848C114.706 27.848 113.505 28.4263 112.615 29.583C111.726 30.7396 111.281 32.2966 111.281 34.254C111.281 36.2113 111.726 37.8128 112.615 38.9694C113.505 40.126 114.706 40.7044 116.263 40.7044C117.42 40.7044 118.398 40.393 119.199 39.8147C120 39.2363 120.534 38.3911 120.756 37.3235H123.826C123.559 39.1919 122.713 40.7044 121.379 41.772C120.044 42.9286 118.354 43.4625 116.263 43.4625Z" fill="#fff"/>
<path d="M130.364 43.2844C129.03 43.2844 127.962 42.9285 127.117 42.1723C126.271 41.4605 125.871 40.4818 125.871 39.2807C125.871 38.0796 126.316 37.1454 127.206 36.4781C128.095 35.8108 129.385 35.4105 131.076 35.3215L134.546 35.0991V34.1204C134.546 33.4086 134.323 32.8748 133.878 32.5189C133.434 32.1185 132.811 31.9406 131.966 31.9406C131.298 31.9406 130.72 32.1185 130.231 32.4299C129.786 32.7413 129.474 33.1862 129.385 33.72H126.583C126.627 32.5189 127.161 31.4957 128.184 30.695C129.208 29.8943 130.498 29.4939 132.055 29.4939C133.745 29.4939 135.08 29.8943 136.058 30.695C137.037 31.4957 137.571 32.5634 137.571 33.898V43.151H134.635V41.0157H134.546C134.19 41.7274 133.612 42.3057 132.855 42.7061C132.099 43.1065 131.254 43.2844 130.364 43.2844ZM131.254 40.9712C132.188 40.9712 132.944 40.7043 133.567 40.1704C134.19 39.6366 134.501 38.9693 134.501 38.1686V37.1454L131.432 37.3234C129.741 37.4568 128.896 38.0351 128.896 39.1473C128.896 39.6811 129.119 40.1259 129.519 40.4373C129.919 40.7487 130.542 40.9712 131.254 40.9712Z" fill="#fff"/>
<path d="M140.597 43.1511V29.8054H143.533V32.1186H143.577C143.8 31.3179 144.2 30.7396 144.734 30.2947C145.312 29.8499 145.979 29.6274 146.78 29.6274C147.136 29.6274 147.447 29.6719 147.714 29.7609V32.519C147.447 32.3855 147.047 32.3411 146.513 32.3411C145.624 32.3411 144.912 32.608 144.422 33.1418C143.933 33.6756 143.666 34.4319 143.666 35.3661V43.1511H140.597Z" fill="#fff"/>
<path d="M158.212 39.1918H161.059C160.881 40.4374 160.214 41.4161 159.146 42.2168C158.079 42.9731 156.744 43.3734 155.187 43.3734C153.23 43.3734 151.673 42.7506 150.516 41.5495C149.36 40.3484 148.781 38.658 148.781 36.5671C148.781 34.4763 149.36 32.7859 150.472 31.5403C151.584 30.2947 153.141 29.6719 155.054 29.6719C156.922 29.6719 158.435 30.2502 159.502 31.4513C160.614 32.6524 161.148 34.2539 161.148 36.2557V37.2789H151.806V37.4568C151.806 38.5245 152.118 39.4142 152.74 40.037C153.363 40.7043 154.208 41.0157 155.187 41.0157C155.899 41.0157 156.566 40.8378 157.1 40.5264C157.678 40.1705 158.034 39.7256 158.212 39.1918ZM155.098 31.9851C154.208 31.9851 153.452 32.2965 152.874 32.8748C152.296 33.4531 151.94 34.2539 151.895 35.1881H158.212C158.168 34.2094 157.856 33.4531 157.322 32.8748C156.789 32.2965 155.988 31.9851 155.098 31.9851Z" fill="#fff"/>
<path fill-rule="evenodd" clip-rule="evenodd" d="M22.844 42.9287C21.8653 42.8842 21.0201 42.2614 20.7087 41.3717C20.2638 40.4375 20.4863 39.3254 21.2425 38.6136C22.4436 37.4125 23.6447 36.2114 24.8903 35.0548C25.2907 34.6989 25.3352 34.4765 24.9348 34.0761C23.0219 32.2967 21.1535 30.4728 19.3296 28.6044C18.8848 28.204 18.6624 28.2485 18.3065 28.6489C17.1054 29.85 15.9043 31.0511 14.6587 32.2077C13.6355 33.2309 11.9895 33.1864 10.9664 32.1632C10.6105 31.8073 10.388 31.3625 10.2991 30.8731C10.1211 30.1169 10.3436 29.2717 10.9219 28.7378C12.9237 26.736 14.9256 24.7786 16.9719 22.8213C17.9061 21.8871 19.4631 21.8871 20.3973 22.8213C23.9117 26.2022 27.3815 29.5831 30.8959 33.0529C31.8301 33.8982 31.8746 35.3662 30.9849 36.3004C30.9404 36.3449 30.8959 36.3894 30.8959 36.3894C28.894 38.3467 26.8477 40.3041 24.8014 42.2614C24.2675 42.7508 23.5558 43.0177 22.844 42.9287Z" fill="#fff"/>
<path fill-rule="evenodd" clip-rule="evenodd" d="M37.8795 15.3917C37.8795 17.9719 37.1233 20.4631 35.6998 22.5984C35.2994 23.2212 35.3884 23.4881 35.8777 23.8885C36.5895 24.5113 37.2567 25.1786 37.8795 25.8458C38.9027 26.78 38.9472 28.337 38.0575 29.3602L38.013 29.4047C37.0788 30.4279 35.4773 30.5168 34.4542 29.5826C32.8527 28.1146 31.2957 26.5576 29.7832 25.0006C28.8045 23.9775 28.9379 22.5539 30.0056 21.4418C31.4291 20.0627 32.3633 18.2833 32.6302 16.3259C33.253 11.7884 29.7387 7.33986 25.1567 6.85052C22.3096 6.45015 19.4625 7.42883 17.5052 9.51965C13.2345 13.7013 8.96393 17.8829 4.64883 22.0646C4.07052 22.7319 3.22529 23.0877 2.33558 22.9988C1.31241 22.9543 0.467186 22.287 0.155787 21.3528C-0.200098 20.4186 0.0668158 19.351 0.82307 18.6837C3.00286 16.5484 5.18266 14.4575 7.36245 12.3222C9.6757 10.0535 11.9889 7.74023 14.3912 5.51595C22.0872 -1.69071 34.899 2.00159 37.5237 12.1888C37.7461 13.212 37.8795 14.3241 37.8795 15.3917Z" fill="#fff"/>
</svg>
