<svg width="100%" height="100%" viewBox="0 0 500 500" version="1.1" xmlns="http://www.w3.org/2000/svg" xmlns:xlink="http://www.w3.org/1999/xlink" xml:space="preserve" xmlns:serif="http://www.serif.com/" style="fill-rule:evenodd;clip-rule:evenodd;stroke-linejoin:round;stroke-miterlimit:2;">
<g id="Star_Medal">
<path d="M151.015,334.021L102.072,442.976C101.137,445.058 101.411,447.484 102.787,449.305C104.163,451.126 106.422,452.052 108.68,451.721L159.817,444.219C159.817,444.219 188.174,487.429 188.174,487.429C189.426,489.337 191.619,490.411 193.894,490.23C196.17,490.05 198.165,488.643 199.1,486.561L250,373.25L300.9,486.561C301.835,488.643 303.83,490.05 306.106,490.23C308.381,490.411 310.574,489.337 311.826,487.429L340.183,444.219C340.183,444.219 391.32,451.721 391.32,451.721C393.578,452.052 395.837,451.126 397.213,449.305C398.589,447.484 398.863,445.058 397.928,442.976L348.985,334.021C396.186,302.164 427.25,248.181 427.25,187C427.25,89.173 347.827,9.75 250,9.75C152.173,9.75 72.75,89.173 72.75,187C72.75,248.181 103.814,302.164 151.015,334.021ZM338.284,340.703C314.878,354.186 288.107,362.477 259.547,363.997L307.63,471.04L331.92,434.028C333.254,431.995 335.646,430.92 338.052,431.273C338.052,431.273 381.854,437.698 381.854,437.698L338.284,340.703ZM161.716,340.703L118.146,437.698L161.948,431.273C164.354,430.92 166.746,431.995 168.08,434.028C168.08,434.028 192.37,471.04 192.37,471.04L240.453,363.997C211.895,362.48 185.12,354.188 161.716,340.703ZM250,22.25C340.928,22.25 414.75,96.072 414.75,187C414.75,277.928 340.928,351.75 250,351.75C159.072,351.75 85.25,277.928 85.25,187C85.25,96.072 159.072,22.25 250,22.25ZM250,39.573C168.633,39.573 102.573,105.633 102.573,187C102.573,268.367 168.633,334.427 250,334.427C331.367,334.427 397.427,268.367 397.427,187C397.427,105.633 331.367,39.573 250,39.573ZM250,52.073C324.468,52.073 384.927,112.532 384.927,187C384.927,261.468 324.468,321.927 250,321.927C175.532,321.927 115.073,261.468 115.073,187C115.073,112.532 175.532,52.073 250,52.073ZM255.684,84.342C254.667,82.118 252.446,80.691 250,80.691C247.554,80.691 245.333,82.118 244.316,84.342L217.754,142.449C217.754,142.449 154.283,149.755 154.283,149.755C151.853,150.035 149.809,151.706 149.053,154.033C148.298,156.359 148.968,158.912 150.77,160.567L197.824,203.785C197.824,203.785 185.159,266.407 185.159,266.407C184.674,268.805 185.633,271.265 187.612,272.702C189.591,274.14 192.226,274.291 194.357,273.089L250,241.693C250,241.693 305.643,273.089 305.643,273.089C307.774,274.291 310.409,274.14 312.388,272.702C314.367,271.265 315.326,268.805 314.841,266.407L302.176,203.785C302.176,203.785 349.23,160.567 349.23,160.567C351.032,158.912 351.702,156.359 350.947,154.033C350.191,151.706 348.147,150.035 345.717,149.755L282.246,142.449C282.246,142.449 255.684,84.342 255.684,84.342ZM250,101.974L272.344,150.853C273.254,152.844 275.139,154.213 277.313,154.464L330.705,160.61C330.705,160.61 291.123,196.964 291.123,196.964C289.511,198.445 288.791,200.661 289.224,202.806L299.878,255.484C299.878,255.484 253.071,229.073 253.071,229.073C251.165,227.998 248.835,227.998 246.929,229.073L200.122,255.484C200.122,255.484 210.776,202.806 210.776,202.806C211.209,200.661 210.489,198.445 208.877,196.964L169.295,160.61C169.295,160.61 222.687,154.464 222.687,154.464C224.861,154.213 226.746,152.844 227.656,150.853L250,101.974Z" id="id_102" style="fill: rgb(78, 205, 230);"></path>
</g>
</svg>