<svg version="1.1" id="Icons" xmlns="http://www.w3.org/2000/svg" xmlns:xlink="http://www.w3.org/1999/xlink" x="0px" y="0px" viewBox="0 0 32 32" style="enable-background:new 0 0 32 32;" xml:space="preserve">
<g>
<path d="M16,9c-1.7,0-3,1.3-3,3v1h6v-1C19,10.3,17.7,9,16,9z" id="id_101" style="fill: rgb(59, 173, 154);"></path>
<path d="M29.6,5.2C29.3,5,29,4.9,28.7,5.1c-4.3,1.4-8.7,0.3-12-2.8c-0.4-0.4-1-0.4-1.4,0c-3.3,3.1-7.7,4.2-12,2.8
		C3,4.9,2.7,5,2.4,5.2C2.2,5.4,2,5.7,2,6c0,15.7,6.9,20.9,13.6,23.9C15.7,30,15.9,30,16,30s0.3,0,0.4-0.1C23.1,26.9,30,21.7,30,6
		C30,5.7,29.8,5.4,29.6,5.2z M22,20c0,1.7-1.3,3-3,3h-6c-1.7,0-3-1.3-3-3v-4c0-0.9,0.4-1.7,1-2.2V12c0-2.8,2.2-5,5-5s5,2.2,5,5v1.8
		c0.6,0.5,1,1.3,1,2.2V20z" id="id_102" style="fill: rgb(60, 173, 154);"></path>
<path d="M16,16c-0.6,0-1,0.4-1,1v2c0,0.6,0.4,1,1,1s1-0.4,1-1v-2C17,16.4,16.6,16,16,16z" id="id_103" style="fill: rgb(57, 173, 154);"></path>
</g>
</svg>