<svg xmlns="http://www.w3.org/2000/svg" xmlns:xlink="http://www.w3.org/1999/xlink" width="60" height="60"><defs><path id="a" d="M.06 0h35.3v18.034H.06z"/></defs><g fill="none" fill-rule="evenodd"><circle cx="30" cy="30" r="30" fill="#F4F7FB"/><path fill="#3CCEA5" d="M18.114 27.34v20.648h27.473V27.34l-13.66-13.213z"/><path fill="#3BB896" d="M18.12 27.4v20.588h2.337V25.422z"/><g transform="translate(14.14 13.5)"><mask id="b" fill="#fff"><use xlink:href="#a"/></mask><path fill="#3BB896" d="M17.71 3.43L2.3 17.938a.357.357 0 01-.472.015l-1.642-1.36a.344.344 0 01-.016-.518L17.007.272a1.044 1.044 0 011.406 0L35.25 16.075a.344.344 0 01-.016.518l-1.642 1.36a.357.357 0 01-.471-.015L17.71 3.43z" mask="url(#b)"/></g><path fill="#F3F6FA" d="M31.85 31.846c2.503 0 4.53 2 4.53 4.467v11.674h-9.06V36.313c0-2.467 2.028-4.467 4.53-4.467"/><path fill="#BCDFEF" d="M34.345 40.846H33.03a.647.647 0 01-.652-.643c0-.355.292-.643.652-.643h1.315c.36 0 .652.288.652.643a.648.648 0 01-.652.643m-1.892-8.959c-2.22.286-3.932 2.16-3.932 4.427v11.674h-1.2V36.314c0-2.467 2.028-4.468 4.531-4.468.204 0 .405.012.601.04"/><path fill="#F3F6FA" d="M31.85 28.743c-1.749 0-3.172-1.403-3.172-3.128s1.423-3.128 3.172-3.128c1.75 0 3.173 1.403 3.173 3.128s-1.423 3.128-3.173 3.128"/><path fill="#BCDFEF" d="M29.776 25.614c0-1.539 1.135-2.823 2.623-3.079a3.008 3.008 0 00-.55-.048c-1.748 0-3.17 1.402-3.17 3.127 0 1.725 1.422 3.13 3.17 3.13.189 0 .372-.015.55-.049-1.488-.258-2.623-1.542-2.623-3.08"/><path fill="#3EC19D" d="M22.126 43.661h-2.915v-.494c0-.401-.305-.761-.712-.782a.748.748 0 00-.792.74v.536h-1.37v-1.34c0-.402-.305-.762-.712-.782a.747.747 0 00-.792.74v1.382h-1.484v-.437c0-.402-.305-.762-.712-.783a.747.747 0 00-.792.74v.487A1.395 1.395 0 0010.5 45.05c0 1.623 1.333 2.937 2.978 2.937h11.787a.534.534 0 00.538-.53v-.172c0-2.002-1.647-3.625-3.677-3.625M46.68 48h-1.883a2.175 2.175 0 01-2.186-2.165c0-1.196.979-2.165 2.186-2.165h1.884c1.207 0 2.186.97 2.186 2.165A2.176 2.176 0 0146.681 48"/></g></svg>